<?xml version="1.0" encoding="utf-8"?>
<!-- Generator: Adobe Illustrator 19.1.0, SVG Export Plug-In . SVG Version: 6.00 Build 0)  -->
<svg version="1.1" xmlns="http://www.w3.org/2000/svg" xmlns:xlink="http://www.w3.org/1999/xlink" x="0px" y="0px"
	 viewBox="0 0 1920 1080" style="enable-background:new 0 0 1920 1080;" xml:space="preserve">
<style type="text/css">
	.st0{fill:#448CF6;}
	.st1{fill:#EFEFEF;}
	.st2{font-family:'Bangers-Regular';}
	.st3{font-size:100px;}
	.st4{fill:none;}
	.st5{font-size:70px;}
	.st6{fill:#FFFFFF;}
</style>
<g id="bg_simplify_xA0_Image_1_">
	<image style="overflow:visible;" width="1920" height="1080" id="bg_simplify_xA0_Image" xlink:href="collab_wall_bg.jpg" >
	</image>
</g>
<g id="Layer_9">
	<path class="st0" d="M789.5,822.9h321.6c6.6,0,12,5.4,12,12v153c0,6.6-5.4,12-12,12H789.5c-6.6,0-12-5.4-12-12v-153
		C777.5,828.3,782.9,822.9,789.5,822.9z"/>
</g>
<g id="sign_up_text">
	<text transform="matrix(1 0 0 1 811.6665 951.0696)" class="st1 st2 st3">sign up</text>
</g>
<g id="bubble_shadow_xA0_Image_1_">

		<image style="overflow:visible;" width="1201" height="813" id="bubble_shadow_xA0_Image" xlink:href="BB91F76ED99E732B.png"  transform="matrix(1 0 0 1 388 0)">
	</image>
</g>
<g id="bubble_xA0_Image_1_">

		<image style="overflow:visible;" width="1201" height="813" id="bubble_xA0_Image" xlink:href="BB91F76ED99E732E.png"  transform="matrix(1 0 0 1 346 0)">
	</image>
</g>
<g id="A_new_x2C__innovative_way_for__creating_comics_3_">
	<rect x="645.4" y="475.2" class="st4" width="846.6" height="163.2"/>
	<text id="A_new_x2C__innovative_way_for__creating_comics" transform="matrix(1 0 0 1 645.4062 526.3359)"><tspan x="0" y="0" class="st2 st5">A new, innovative way for </tspan><tspan x="0" y="84" class="st2 st5">creating comics</tspan></text>
</g>
<g id="A_new_x2C__innovative_way_for__creating_comics_2_">
	<rect x="645.4" y="465.2" class="st4" width="846.6" height="163.2"/>
	<text id="A_new_x2C__innovative_way_for__creating_comics_1_" transform="matrix(1 0 0 1 645.4062 516.3359)"><tspan x="0" y="0" class="st6 st2 st5">A new, innovative way for </tspan><tspan x="0" y="84" class="st6 st2 st5">creating comics</tspan></text>
</g>
<g id="Collab-A-COMIC_text_xA0_Image_1_">

		<image style="overflow:visible;" width="1217" height="227" id="Collab-A-COMIC_text_xA0_Image" xlink:href="BB91F76ED99E732F.png"  transform="matrix(1 0 0 1 349 264)">
	</image>
</g>
<g id="Collab-A-COMIC_xA0_Image_1_">

		<image style="overflow:visible;" width="1217" height="227" id="Collab-A-COMIC_xA0_Image" xlink:href="BB91F76ED99E732A.png"  transform="matrix(1 0 0 1 327 264)">
	</image>
</g>
</svg>
